<svg id="svg" fill="#66BB6A" stroke="#66BB6A" width="32" height="32" version="1.1" viewBox="144 144 512 512" xmlns="http://www.w3.org/2000/svg">
    <g id="IconSvg_bgCarrier" stroke-width="0"></g>
    <g id="IconSvg_tracerCarrier" stroke-linecap="round" stroke-linejoin="round" stroke="#CCCCCC" stroke-width="0">
      <path xmlns="http://www.w3.org/2000/svg" d="m400 155.81c-135.1 0-244.61 109.52-244.61 244.61s109.52 244.61 244.61 244.61 244.61-109.52 244.61-244.61-109.52-244.61-244.61-244.61zm104.9 317.8c8.7578 8.7578 8.7578 22.957 0 31.711-8.7578 8.7578-22.957 8.7578-31.711 0l-73.188-73.188-73.191 73.188c-8.7578 8.7578-22.953 8.7578-31.711 0-8.7578-8.7578-8.7578-22.953 0-31.711l73.188-73.188-73.188-73.188c-8.7578-8.7578-8.7578-22.957 0-31.711 8.7578-8.7578 22.953-8.7578 31.711 0l73.191 73.188 73.188-73.188c8.7578-8.7578 22.957-8.7578 31.711 0 8.7578 8.7578 8.7578 22.957 0 31.711l-73.188 73.188z"></path>

      </g>
     <g id="IconSvg_iconCarrier">
      <path xmlns="http://www.w3.org/2000/svg" d="m400 155.81c-135.1 0-244.61 109.52-244.61 244.61s109.52 244.61 244.61 244.61 244.61-109.52 244.61-244.61-109.52-244.61-244.61-244.61zm104.9 317.8c8.7578 8.7578 8.7578 22.957 0 31.711-8.7578 8.7578-22.957 8.7578-31.711 0l-73.188-73.188-73.191 73.188c-8.7578 8.7578-22.953 8.7578-31.711 0-8.7578-8.7578-8.7578-22.953 0-31.711l73.188-73.188-73.188-73.188c-8.7578-8.7578-8.7578-22.957 0-31.711 8.7578-8.7578 22.953-8.7578 31.711 0l73.191 73.188 73.188-73.188c8.7578-8.7578 22.957-8.7578 31.711 0 8.7578 8.7578 8.7578 22.957 0 31.711l-73.188 73.188z"></path>

      </g>
      </svg>