<svg id="svg" fill="#fff" stroke="#fff" width="27" height="27" version="1.1" viewBox="144 144 512 512" xmlns="http://www.w3.org/2000/svg">
    <g id="IconSvg_bgCarrier" stroke-width="0"></g>
    <g id="IconSvg_tracerCarrier" stroke-linecap="round" stroke-linejoin="round" stroke="#CCCCCC" stroke-width="0">
      <g xmlns="http://www.w3.org/2000/svg">
  <path d="m179.02 344.29v292.95l437.77-0.003906v-292.95zm218.89 61.715h-0.003906c14.406 0 28.219 5.7227 38.406 15.906 10.184 10.184 15.906 24 15.906 38.402-0.023438 6.2539-1.1211 12.457-3.2539 18.336l-9.9141 55.723c0 10.914-4.332 21.379-12.051 29.094-7.7148 7.7148-18.18 12.051-29.094 12.051-10.91 0-21.375-4.3359-29.09-12.051-7.7188-7.7148-12.051-18.18-12.051-29.094l-9.8867-55.609h-0.003906c-2.1523-5.9102-3.2617-12.156-3.2773-18.449 0-14.402 5.7227-28.219 15.906-38.402 10.188-10.184 24-15.906 38.402-15.906z"></path>
  <path d="m397.9 158.4c-31.199 0-61.848 8.2148-88.871 23.816-27.02 15.598-49.457 38.035-65.055 65.055-15.602 27.023-23.812 57.672-23.812 88.871h56.305-0.003906c0.003906-32.207 12.797-63.094 35.57-85.867 22.773-22.773 53.66-35.57 85.867-35.57 32.211 0 63.102 12.793 85.879 35.566 22.777 22.773 35.574 53.664 35.574 85.871h56.289c0-31.199-8.2109-61.848-23.812-88.871-15.598-27.02-38.039-49.457-65.059-65.055-27.02-15.602-57.668-23.816-88.871-23.816z"></path>
 </g>

      </g>
     <g id="IconSvg_iconCarrier">
      <g xmlns="http://www.w3.org/2000/svg">
  <path d="m179.02 344.29v292.95l437.77-0.003906v-292.95zm218.89 61.715h-0.003906c14.406 0 28.219 5.7227 38.406 15.906 10.184 10.184 15.906 24 15.906 38.402-0.023438 6.2539-1.1211 12.457-3.2539 18.336l-9.9141 55.723c0 10.914-4.332 21.379-12.051 29.094-7.7148 7.7148-18.18 12.051-29.094 12.051-10.91 0-21.375-4.3359-29.09-12.051-7.7188-7.7148-12.051-18.18-12.051-29.094l-9.8867-55.609h-0.003906c-2.1523-5.9102-3.2617-12.156-3.2773-18.449 0-14.402 5.7227-28.219 15.906-38.402 10.188-10.184 24-15.906 38.402-15.906z"></path>
  <path d="m397.9 158.4c-31.199 0-61.848 8.2148-88.871 23.816-27.02 15.598-49.457 38.035-65.055 65.055-15.602 27.023-23.812 57.672-23.812 88.871h56.305-0.003906c0.003906-32.207 12.797-63.094 35.57-85.867 22.773-22.773 53.66-35.57 85.867-35.57 32.211 0 63.102 12.793 85.879 35.566 22.777 22.773 35.574 53.664 35.574 85.871h56.289c0-31.199-8.2109-61.848-23.812-88.871-15.598-27.02-38.039-49.457-65.059-65.055-27.02-15.602-57.668-23.816-88.871-23.816z"></path>
 </g>

      </g>
      </svg>