<svg width="28" height="28" viewBox="0 0 28 29" fill="none" xmlns="http://www.w3.org/2000/svg">
<path d="M3.5 7.25002L7 2.41669H21L24.5 7.25002M3.5 7.25002V24.1667C3.5 24.8076 3.74583 25.4223 4.18342 25.8755C4.621 26.3287 5.21449 26.5834 5.83333 26.5834H22.1667C22.7855 26.5834 23.379 26.3287 23.8166 25.8755C24.2542 25.4223 24.5 24.8076 24.5 24.1667V7.25002M3.5 7.25002H24.5M18.6667 12.0834C18.6667 13.3652 18.175 14.5946 17.2998 15.501C16.4247 16.4075 15.2377 16.9167 14 16.9167C12.7623 16.9167 11.5753 16.4075 10.7002 15.501C9.825 14.5946 9.33333 13.3652 9.33333 12.0834" stroke="#02542D" stroke-width="4" stroke-linecap="round" stroke-linejoin="round"/>
</svg>
