<svg id="svg" fill="#fff" stroke="#fff" width="28px" height="28px" version="1.1" viewBox="144 144 512 512" xmlns="http://www.w3.org/2000/svg">
    <g id="IconSvg_bgCarrier" stroke-width="0"></g>
    <g id="IconSvg_tracerCarrier" stroke-linecap="round" stroke-linejoin="round" stroke="#fff"></g>
     <g id="IconSvg_iconCarrier">
      <g xmlns="http://www.w3.org/2000/svg">
  <path d="m345.53 287.35c-67.172 32.676-118.72 119.64-118.72 191.37 0 101.55 61.504 157.44 173.18 157.44 111.68 0 173.18-55.891 173.18-157.44 0-71.723-51.547-158.69-118.72-191.37 46.301-7.7383 71.488-34.102 71.488-76.281-0.007813-13.617-5.8906-26.566-16.141-35.531-10.254-8.9609-23.875-13.062-37.371-11.254-13.492 1.8125-25.551 9.3594-33.078 20.703-8.75-13.191-23.531-21.121-39.359-21.121-15.832 0-30.609 7.9297-39.363 21.121-7.5234-11.344-19.582-18.891-33.078-20.703-13.496-1.8086-27.117 2.293-37.367 11.254-10.254 8.9648-16.137 21.914-16.145 35.531 0 42.18 25.191 68.543 71.484 76.281zm211.91 191.37c0 92.699-54.441 141.7-157.44 141.7-103 0-157.44-48.996-157.44-141.7 0-82.492 76.359-188.93 157.44-188.93s157.44 106.44 157.44 188.93zm-236.16-299.14c8.3516 0 16.359 3.3164 22.266 9.2227s9.2227 13.914 9.2227 22.266c0 4.3477 3.5234 7.8711 7.8711 7.8711 4.3477 0 7.875-3.5234 7.875-7.8711 0-11.25 6-21.645 15.742-27.27 9.7422-5.625 21.746-5.625 31.488 0 9.7422 5.625 15.746 16.02 15.746 27.27 0 4.3477 3.5234 7.8711 7.8711 7.8711s7.8711-3.5234 7.8711-7.8711c0-11.25 6-21.645 15.746-27.27 9.7422-5.625 21.742-5.625 31.484 0 9.7461 5.625 15.746 16.02 15.746 27.27 0 46.926-38.266 60.387-74.785 62.59 7.5977-8.582 11.797-19.641 11.809-31.102 0-4.3477-3.5234-7.8711-7.8711-7.8711s-7.8711 3.5234-7.8711 7.8711c0 11.25-6.0039 21.645-15.746 27.27-9.7422 5.625-21.746 5.625-31.488 0-9.7422-5.625-15.742-16.02-15.742-27.27 0-4.3477-3.5273-7.8711-7.875-7.8711-4.3477 0-7.8711 3.5234-7.8711 7.8711 0.011719 11.461 4.2109 22.52 11.809 31.102-36.52-2.2031-74.785-15.664-74.785-62.59 0-8.3516 3.3203-16.359 9.2227-22.266 5.9062-5.9062 13.914-9.2227 22.266-9.2227z"></path>
  <path d="m588.93 313.41c2.0898 0 4.0898-0.82812 5.5664-2.3047 1.4766-1.4766 2.3086-3.4805 2.3086-5.5664v-7.8711c0-4.3477-3.5273-7.875-7.875-7.875-4.3477 0-7.8711 3.5273-7.8711 7.875v7.8711c0 2.0859 0.82812 4.0898 2.3047 5.5664 1.4766 1.4766 3.4805 2.3047 5.5664 2.3047z"></path>
  <path d="m588.93 329.15c-4.3477 0-7.8711 3.5273-7.8711 7.875v7.8711c0 4.3477 3.5234 7.8711 7.8711 7.8711 4.3477 0 7.875-3.5234 7.875-7.8711v-7.8711c0-2.0898-0.83203-4.0898-2.3086-5.5664-1.4766-1.4766-3.4766-2.3086-5.5664-2.3086z"></path>
  <path d="m557.44 321.28c0 2.0898 0.83203 4.0898 2.3086 5.5664 1.4766 1.4766 3.4766 2.3047 5.5664 2.3047h7.8711c4.3477 0 7.8711-3.5234 7.8711-7.8711s-3.5234-7.8711-7.8711-7.8711h-7.8711c-4.3477 0-7.875 3.5234-7.875 7.8711z"></path>
  <path d="m604.67 329.15h7.8711c4.3477 0 7.8711-3.5234 7.8711-7.8711s-3.5234-7.8711-7.8711-7.8711h-7.8711c-4.3477 0-7.8711 3.5234-7.8711 7.8711s3.5234 7.8711 7.8711 7.8711z"></path>
  <path d="m211.07 234.69c2.0859 0 4.0898-0.83203 5.5664-2.3086 1.4766-1.4766 2.3047-3.4766 2.3047-5.5664v-7.8711c0-4.3477-3.5234-7.8711-7.8711-7.8711-4.3477 0-7.8711 3.5234-7.8711 7.8711v7.8711c0 2.0898 0.82812 4.0898 2.3047 5.5664 1.4766 1.4766 3.4766 2.3086 5.5664 2.3086z"></path>
  <path d="m211.07 250.43c-4.3477 0-7.8711 3.5234-7.8711 7.8711v7.875c0 4.3477 3.5234 7.8711 7.8711 7.8711 4.3477 0 7.8711-3.5234 7.8711-7.8711v-7.875c0-2.0859-0.82812-4.0898-2.3047-5.5664-1.4766-1.4766-3.4805-2.3047-5.5664-2.3047z"></path>
  <path d="m187.45 250.43h7.8711c4.3477 0 7.875-3.5234 7.875-7.8711s-3.5273-7.8711-7.875-7.8711h-7.8711c-4.3477 0-7.8711 3.5234-7.8711 7.8711s3.5234 7.8711 7.8711 7.8711z"></path>
  <path d="m226.81 250.43h7.875c4.3477 0 7.8711-3.5234 7.8711-7.8711s-3.5234-7.8711-7.8711-7.8711h-7.875c-4.3477 0-7.8711 3.5234-7.8711 7.8711s3.5234 7.8711 7.8711 7.8711z"></path>
  <path d="m557.44 258.3c2.0898 0 4.0898-0.82812 5.5664-2.3047 1.4766-1.4766 2.3086-3.4766 2.3086-5.5664v-7.8711c0-4.3477-3.5273-7.8711-7.875-7.8711s-7.8711 3.5234-7.8711 7.8711v7.8711c0 2.0898 0.82812 4.0898 2.3047 5.5664 1.4766 1.4766 3.4805 2.3047 5.5664 2.3047z"></path>
  <path d="m234.69 313.41v7.8711c0 4.3477 3.5234 7.8711 7.8711 7.8711s7.8711-3.5234 7.8711-7.8711v-7.8711c0-4.3477-3.5234-7.8711-7.8711-7.8711s-7.8711 3.5234-7.8711 7.8711z"></path>
  <path d="m392.12 360.64v16.453c-15.633 2.7383-28.844 13.145-35.172 27.699-6.3242 14.555-4.918 31.316 3.7461 44.613 8.6641 13.297 23.43 21.352 39.301 21.445 8.3516 0 16.359 3.3164 22.266 9.2227 5.9023 5.9023 9.2227 13.914 9.2227 22.266 0 8.3516-3.3203 16.359-9.2227 22.266-5.9062 5.9023-13.914 9.2227-22.266 9.2227s-16.363-3.3203-22.266-9.2227c-5.9062-5.9062-9.2227-13.914-9.2227-22.266 0-4.3477-3.5273-7.875-7.875-7.875-4.3477 0-7.8711 3.5273-7.8711 7.875 0.019531 11.148 3.9844 21.934 11.184 30.449 7.2031 8.5117 17.184 14.207 28.176 16.074v16.453c0 4.3477 3.5273 7.8711 7.875 7.8711s7.8711-3.5234 7.8711-7.8711v-16.453c15.633-2.7383 28.848-13.145 35.172-27.699 6.3242-14.555 4.918-31.316-3.7461-44.613s-23.43-21.352-39.297-21.445c-8.3516 0-16.363-3.3164-22.266-9.2227-5.9062-5.9023-9.2227-13.914-9.2227-22.266 0-8.3516 3.3164-16.359 9.2227-22.266 5.9023-5.9023 13.914-9.2227 22.266-9.2227s16.359 3.3203 22.266 9.2227c5.9023 5.9062 9.2227 13.914 9.2227 22.266 0 4.3477 3.5234 7.875 7.8711 7.875s7.8711-3.5273 7.8711-7.875c-0.019531-11.148-3.9805-21.934-11.184-30.449-7.2031-8.5117-17.184-14.207-28.176-16.074v-16.453c0-4.3477-3.5234-7.8711-7.8711-7.8711s-7.875 3.5234-7.875 7.8711z"></path>
 </g>

      </g>
      </svg>